# xmcd
#
# Track frame offsets:
# 150
# 21407
# 39023
# 63944
# 82168
# 95456
# 126694
# 139639
# 175635
# 188838
# 220431
# 238547
# 268376
# 282098
#
# Disc length: 4075 seconds
#
#
# Revision: 0
# Processed by: cddbd v1.5.1PL0 Copyright (c) Steve Scherf et al.
# Submitted via: FreeRIP 2.92 
#
DISCID=ce0fe90e
DTITLE=Eric Claption - Blues [CD1]
DYEAR=1999
DGENRE=Blues
TTITLE0=Before You Accuse Me (Take A Look At Yourself)[Version1]
TTITLE1=Mean Old World
TTITLE2=Ain't That Lovin You
TTITLE3=The Sky Is Crying
TTITLE4=Cryin'
TTITLE5=Have You Ever Loved A Women
TTITLE6=Alberta
TTITLE7=Early In The Morning
TTITLE8=Give Me Strength
TTITLE9=Meet Me (Down At The Bottom)
TTITLE10=County Jail Blues
TTITLE11=Floating Bridge
TTITLE12=Blow Wind Blow
TTITLE13=To Make Somebody Happy
EXTD=
EXTT0=
EXTT1=
EXTT2=
EXTT3=
EXTT4=
EXTT5=
EXTT6=
EXTT7=
EXTT8=
EXTT9=
EXTT10=
EXTT11=
EXTT12=
EXTT13=
PLAYORDER=
